<?xml version="1.0" encoding="UTF-8"?>
<svg xmlns="http://www.w3.org/2000/svg" viewBox="0 0 512 512" role="img" aria-labelledby="title desc">
<title id="title">初开大王花</title>
<desc id="desc">星芽岛雨林素材：初开大王花</desc>

<defs>
  <linearGradient id="water" x1="0" y1="0" x2="1" y2="1">
    <stop offset="0" stop-color="#65d6e8"/><stop offset=".55" stop-color="#208ec5"/><stop offset="1" stop-color="#14599e"/>
  </linearGradient>
  <linearGradient id="leaf" x1="0" y1="0" x2="1" y2="1">
    <stop offset="0" stop-color="#8ed84c"/><stop offset=".55" stop-color="#3b9f3d"/><stop offset="1" stop-color="#176b38"/>
  </linearGradient>
  <linearGradient id="leafDark" x1="0" y1="0" x2="1" y2="1">
    <stop offset="0" stop-color="#4eb44a"/><stop offset="1" stop-color="#0e5638"/>
  </linearGradient>
  <linearGradient id="wood" x1="0" y1="0" x2="1" y2="0">
    <stop offset="0" stop-color="#6c3e21"/><stop offset=".5" stop-color="#a96b35"/><stop offset="1" stop-color="#4c2b1a"/>
  </linearGradient>
  <linearGradient id="mud" x1="0" y1="0" x2="1" y2="1">
    <stop offset="0" stop-color="#9b7044"/><stop offset=".6" stop-color="#704728"/><stop offset="1" stop-color="#4b301f"/>
  </linearGradient>
  <linearGradient id="drop" x1="0" y1="0" x2="1" y2="1">
    <stop offset="0" stop-color="#f1ffff" stop-opacity=".98"/><stop offset=".45" stop-color="#75d8f2" stop-opacity=".9"/><stop offset="1" stop-color="#258dcc" stop-opacity=".9"/>
  </linearGradient>
  <filter id="shadow" x="-30%" y="-30%" width="160%" height="170%">
    <feDropShadow dx="0" dy="9" stdDeviation="8" flood-color="#12382d" flood-opacity=".30"/>
  </filter>
  <filter id="soft" x="-30%" y="-30%" width="160%" height="160%">
    <feGaussianBlur stdDeviation="5"/>
  </filter>
</defs>

<g filter="url(#shadow)" stroke-linecap="round" stroke-linejoin="round">
<ellipse cx="256" cy="408" rx="180" ry="40" fill="#35643a" opacity=".45"/><ellipse cx="256" cy="223.5" rx="50.349999999999994" ry="55.099999999999994" transform="rotate(0 256 290)" fill="#d94d55" stroke="#702737" stroke-width="7.6"/><ellipse cx="256" cy="223.5" rx="50.349999999999994" ry="55.099999999999994" transform="rotate(72 256 290)" fill="#d94d55" stroke="#702737" stroke-width="7.6"/><ellipse cx="256" cy="223.5" rx="50.349999999999994" ry="55.099999999999994" transform="rotate(144 256 290)" fill="#d94d55" stroke="#702737" stroke-width="7.6"/><ellipse cx="256" cy="223.5" rx="50.349999999999994" ry="55.099999999999994" transform="rotate(216 256 290)" fill="#d94d55" stroke="#702737" stroke-width="7.6"/><ellipse cx="256" cy="223.5" rx="50.349999999999994" ry="55.099999999999994" transform="rotate(288 256 290)" fill="#d94d55" stroke="#702737" stroke-width="7.6"/><circle cx="256" cy="290" r="55.099999999999994" fill="#7b2c3c" stroke="#54202e" stroke-width="7.6"/><circle cx="256" cy="290" r="29.45" fill="#2f1721"/><circle cx="295.9" cy="290.0" r="4.75" fill="#f5c56d"/><circle cx="292.5" cy="306.2" r="4.75" fill="#f5c56d"/><circle cx="282.7" cy="319.7" r="4.75" fill="#f5c56d"/><circle cx="268.3" cy="327.9" r="4.75" fill="#f5c56d"/><circle cx="251.8" cy="329.7" r="4.75" fill="#f5c56d"/><circle cx="236.1" cy="324.6" r="4.75" fill="#f5c56d"/><circle cx="223.7" cy="313.5" r="4.75" fill="#f5c56d"/><circle cx="217.0" cy="298.3" r="4.75" fill="#f5c56d"/><circle cx="217.0" cy="281.7" r="4.75" fill="#f5c56d"/><circle cx="223.7" cy="266.5" r="4.75" fill="#f5c56d"/><circle cx="236.0" cy="255.4" r="4.75" fill="#f5c56d"/><circle cx="251.8" cy="250.3" r="4.75" fill="#f5c56d"/><circle cx="268.3" cy="252.1" r="4.75" fill="#f5c56d"/><circle cx="282.7" cy="260.3" r="4.75" fill="#f5c56d"/><circle cx="292.5" cy="273.8" r="4.75" fill="#f5c56d"/>
</g>
</svg>
