<?xml version="1.0" encoding="UTF-8"?>
<svg xmlns="http://www.w3.org/2000/svg" viewBox="0 0 512 512" role="img" aria-labelledby="title desc">
<title id="title">双叶王莲</title>
<desc id="desc">星芽岛雨林素材：双叶王莲</desc>

<defs>
  <linearGradient id="water" x1="0" y1="0" x2="1" y2="1">
    <stop offset="0" stop-color="#65d6e8"/><stop offset=".55" stop-color="#208ec5"/><stop offset="1" stop-color="#14599e"/>
  </linearGradient>
  <linearGradient id="leaf" x1="0" y1="0" x2="1" y2="1">
    <stop offset="0" stop-color="#8ed84c"/><stop offset=".55" stop-color="#3b9f3d"/><stop offset="1" stop-color="#176b38"/>
  </linearGradient>
  <linearGradient id="leafDark" x1="0" y1="0" x2="1" y2="1">
    <stop offset="0" stop-color="#4eb44a"/><stop offset="1" stop-color="#0e5638"/>
  </linearGradient>
  <linearGradient id="wood" x1="0" y1="0" x2="1" y2="0">
    <stop offset="0" stop-color="#6c3e21"/><stop offset=".5" stop-color="#a96b35"/><stop offset="1" stop-color="#4c2b1a"/>
  </linearGradient>
  <linearGradient id="mud" x1="0" y1="0" x2="1" y2="1">
    <stop offset="0" stop-color="#9b7044"/><stop offset=".6" stop-color="#704728"/><stop offset="1" stop-color="#4b301f"/>
  </linearGradient>
  <linearGradient id="drop" x1="0" y1="0" x2="1" y2="1">
    <stop offset="0" stop-color="#f1ffff" stop-opacity=".98"/><stop offset=".45" stop-color="#75d8f2" stop-opacity=".9"/><stop offset="1" stop-color="#258dcc" stop-opacity=".9"/>
  </linearGradient>
  <filter id="shadow" x="-30%" y="-30%" width="160%" height="170%">
    <feDropShadow dx="0" dy="9" stdDeviation="8" flood-color="#12382d" flood-opacity=".30"/>
  </filter>
  <filter id="soft" x="-30%" y="-30%" width="160%" height="160%">
    <feGaussianBlur stdDeviation="5"/>
  </filter>
</defs>

<g filter="url(#shadow)" stroke-linecap="round" stroke-linejoin="round">
<g transform="rotate(20 182 294)"><circle cx="182" cy="294" r="95" fill="#4cae4a" stroke="#185d37" stroke-width="8"/><path d="M 182 294 L 272.2 276.9" stroke="#e9f6a4" stroke-width="12"/><path d="M123.1 307.3 Q182.0 270.2 234.2 322.5" fill="none" stroke="#8bd071" stroke-width="5" opacity=".65"/></g><g transform="rotate(-25 330 245)"><circle cx="330" cy="245" r="105" fill="#4cae4a" stroke="#185d37" stroke-width="8"/><path d="M 330 245 L 429.8 226.1" stroke="#e9f6a4" stroke-width="12"/><path d="M264.9 259.7 Q330.0 218.8 387.8 276.5" fill="none" stroke="#8bd071" stroke-width="5" opacity=".65"/></g><g transform="translate(348.9 234.5) scale(0.9545454545454546)"><ellipse cx="0" cy="-22" rx="13" ry="24" transform="rotate(0.0)" fill="#f9edf5" stroke="#7d2e55" stroke-width="4"/><ellipse cx="0" cy="-22" rx="13" ry="24" transform="rotate(45.0)" fill="#f9edf5" stroke="#7d2e55" stroke-width="4"/><ellipse cx="0" cy="-22" rx="13" ry="24" transform="rotate(90.0)" fill="#f9edf5" stroke="#7d2e55" stroke-width="4"/><ellipse cx="0" cy="-22" rx="13" ry="24" transform="rotate(135.0)" fill="#f9edf5" stroke="#7d2e55" stroke-width="4"/><ellipse cx="0" cy="-22" rx="13" ry="24" transform="rotate(180.0)" fill="#f9edf5" stroke="#7d2e55" stroke-width="4"/><ellipse cx="0" cy="-22" rx="13" ry="24" transform="rotate(225.0)" fill="#f9edf5" stroke="#7d2e55" stroke-width="4"/><ellipse cx="0" cy="-22" rx="13" ry="24" transform="rotate(270.0)" fill="#f9edf5" stroke="#7d2e55" stroke-width="4"/><ellipse cx="0" cy="-22" rx="13" ry="24" transform="rotate(315.0)" fill="#f9edf5" stroke="#7d2e55" stroke-width="4"/><circle cx="0" cy="0" r="13" fill="#ffd052" stroke="#8d5b1f" stroke-width="4"/></g><ellipse cx="255" cy="395" rx="185" ry="28" fill="#1a7d99" opacity=".20" filter="url(#soft)"/>
</g>
</svg>
