<?xml version="1.0" encoding="UTF-8"?>
<svg xmlns="http://www.w3.org/2000/svg" viewBox="0 0 512 512" role="img" aria-labelledby="title desc">
<title id="title">大雨</title>
<desc id="desc">星芽岛雨林素材：大雨</desc>

<defs>
  <linearGradient id="water" x1="0" y1="0" x2="1" y2="1">
    <stop offset="0" stop-color="#65d6e8"/><stop offset=".55" stop-color="#208ec5"/><stop offset="1" stop-color="#14599e"/>
  </linearGradient>
  <linearGradient id="leaf" x1="0" y1="0" x2="1" y2="1">
    <stop offset="0" stop-color="#8ed84c"/><stop offset=".55" stop-color="#3b9f3d"/><stop offset="1" stop-color="#176b38"/>
  </linearGradient>
  <linearGradient id="leafDark" x1="0" y1="0" x2="1" y2="1">
    <stop offset="0" stop-color="#4eb44a"/><stop offset="1" stop-color="#0e5638"/>
  </linearGradient>
  <linearGradient id="wood" x1="0" y1="0" x2="1" y2="0">
    <stop offset="0" stop-color="#6c3e21"/><stop offset=".5" stop-color="#a96b35"/><stop offset="1" stop-color="#4c2b1a"/>
  </linearGradient>
  <linearGradient id="mud" x1="0" y1="0" x2="1" y2="1">
    <stop offset="0" stop-color="#9b7044"/><stop offset=".6" stop-color="#704728"/><stop offset="1" stop-color="#4b301f"/>
  </linearGradient>
  <linearGradient id="drop" x1="0" y1="0" x2="1" y2="1">
    <stop offset="0" stop-color="#f1ffff" stop-opacity=".98"/><stop offset=".45" stop-color="#75d8f2" stop-opacity=".9"/><stop offset="1" stop-color="#258dcc" stop-opacity=".9"/>
  </linearGradient>
  <filter id="shadow" x="-30%" y="-30%" width="160%" height="170%">
    <feDropShadow dx="0" dy="9" stdDeviation="8" flood-color="#12382d" flood-opacity=".30"/>
  </filter>
  <filter id="soft" x="-30%" y="-30%" width="160%" height="160%">
    <feGaussianBlur stdDeviation="5"/>
  </filter>
</defs>

<g filter="url(#shadow)" stroke-linecap="round" stroke-linejoin="round">
<path d="M115 150 C125 95 175 75 220 105 C245 55 330 60 350 120 C410 112 438 160 420 205 H115 C70 205 72 160 115 150Z" fill="#d9eff0" stroke="#477a83" stroke-width="8" opacity=".88"/><path d="M70.0 200.0 l0.0 40.0" stroke="#8fe7ff" stroke-width="6" opacity="0.88"/><path d="M208.8 327.2 l0.0 50.0" stroke="#8fe7ff" stroke-width="6" opacity="0.88"/><path d="M347.5 221.6 l0.0 60.0" stroke="#8fe7ff" stroke-width="6" opacity="0.88"/><path d="M107.5 348.8 l0.0 70.0" stroke="#8fe7ff" stroke-width="6" opacity="0.88"/><path d="M246.2 243.2 l0.0 40.0" stroke="#8fe7ff" stroke-width="6" opacity="0.88"/><path d="M385.0 370.4 l0.0 50.0" stroke="#8fe7ff" stroke-width="6" opacity="0.88"/><path d="M145.0 264.8 l0.0 60.0" stroke="#8fe7ff" stroke-width="6" opacity="0.88"/><path d="M283.8 392.0 l0.0 70.0" stroke="#8fe7ff" stroke-width="6" opacity="0.88"/><path d="M422.5 286.4 l0.0 40.0" stroke="#8fe7ff" stroke-width="6" opacity="0.88"/><path d="M182.5 413.6 l0.0 50.0" stroke="#8fe7ff" stroke-width="6" opacity="0.88"/><path d="M321.2 308.0 l0.0 60.0" stroke="#8fe7ff" stroke-width="6" opacity="0.88"/><path d="M81.2 202.4 l0.0 70.0" stroke="#8fe7ff" stroke-width="6" opacity="0.88"/><path d="M220.0 329.6 l0.0 40.0" stroke="#8fe7ff" stroke-width="6" opacity="0.88"/><path d="M358.8 224.0 l0.0 50.0" stroke="#8fe7ff" stroke-width="6" opacity="0.88"/><path d="M118.8 351.2 l0.0 60.0" stroke="#8fe7ff" stroke-width="6" opacity="0.88"/><path d="M257.5 245.6 l0.0 70.0" stroke="#8fe7ff" stroke-width="6" opacity="0.88"/><path d="M396.2 372.8 l0.0 40.0" stroke="#8fe7ff" stroke-width="6" opacity="0.88"/><path d="M156.2 267.2 l0.0 50.0" stroke="#8fe7ff" stroke-width="6" opacity="0.88"/><path d="M295.0 394.4 l0.0 60.0" stroke="#8fe7ff" stroke-width="6" opacity="0.88"/><path d="M433.8 288.8 l0.0 70.0" stroke="#8fe7ff" stroke-width="6" opacity="0.88"/><path d="M193.8 416.0 l0.0 40.0" stroke="#8fe7ff" stroke-width="6" opacity="0.88"/><path d="M332.5 310.4 l0.0 50.0" stroke="#8fe7ff" stroke-width="6" opacity="0.88"/><path d="M92.5 204.8 l0.0 60.0" stroke="#8fe7ff" stroke-width="6" opacity="0.88"/><path d="M231.2 332.0 l0.0 70.0" stroke="#8fe7ff" stroke-width="6" opacity="0.88"/><path d="M370.0 226.4 l0.0 40.0" stroke="#8fe7ff" stroke-width="6" opacity="0.88"/><path d="M130.0 353.6 l0.0 50.0" stroke="#8fe7ff" stroke-width="6" opacity="0.88"/><path d="M268.8 248.0 l0.0 60.0" stroke="#8fe7ff" stroke-width="6" opacity="0.88"/><path d="M407.5 375.2 l0.0 70.0" stroke="#8fe7ff" stroke-width="6" opacity="0.88"/><path d="M167.5 269.6 l0.0 40.0" stroke="#8fe7ff" stroke-width="6" opacity="0.88"/><path d="M306.2 396.8 l0.0 50.0" stroke="#8fe7ff" stroke-width="6" opacity="0.88"/><path d="M445.0 291.2 l0.0 60.0" stroke="#8fe7ff" stroke-width="6" opacity="0.88"/><path d="M205.0 418.4 l0.0 70.0" stroke="#8fe7ff" stroke-width="6" opacity="0.88"/><path d="M343.8 312.8 l0.0 40.0" stroke="#8fe7ff" stroke-width="6" opacity="0.88"/><path d="M103.8 207.2 l0.0 50.0" stroke="#8fe7ff" stroke-width="6" opacity="0.88"/><path d="M242.5 334.4 l0.0 60.0" stroke="#8fe7ff" stroke-width="6" opacity="0.88"/><path d="M381.2 228.8 l0.0 70.0" stroke="#8fe7ff" stroke-width="6" opacity="0.88"/><path d="M141.2 356.0 l0.0 40.0" stroke="#8fe7ff" stroke-width="6" opacity="0.88"/><path d="M280.0 250.4 l0.0 50.0" stroke="#8fe7ff" stroke-width="6" opacity="0.88"/><path d="M418.8 377.6 l0.0 60.0" stroke="#8fe7ff" stroke-width="6" opacity="0.88"/><path d="M178.8 272.0 l0.0 70.0" stroke="#8fe7ff" stroke-width="6" opacity="0.88"/><path d="M317.5 399.2 l0.0 40.0" stroke="#8fe7ff" stroke-width="6" opacity="0.88"/><path d="M77.5 293.6 l0.0 50.0" stroke="#8fe7ff" stroke-width="6" opacity="0.88"/>
</g>
</svg>
