<?xml version="1.0" encoding="UTF-8"?>
<svg xmlns="http://www.w3.org/2000/svg" viewBox="0 0 512 512" role="img" aria-labelledby="title desc">
<title id="title">小瀑布河段</title>
<desc id="desc">星芽岛雨林素材：小瀑布河段</desc>

<defs>
  <linearGradient id="water" x1="0" y1="0" x2="1" y2="1">
    <stop offset="0" stop-color="#65d6e8"/><stop offset=".55" stop-color="#208ec5"/><stop offset="1" stop-color="#14599e"/>
  </linearGradient>
  <linearGradient id="leaf" x1="0" y1="0" x2="1" y2="1">
    <stop offset="0" stop-color="#8ed84c"/><stop offset=".55" stop-color="#3b9f3d"/><stop offset="1" stop-color="#176b38"/>
  </linearGradient>
  <linearGradient id="leafDark" x1="0" y1="0" x2="1" y2="1">
    <stop offset="0" stop-color="#4eb44a"/><stop offset="1" stop-color="#0e5638"/>
  </linearGradient>
  <linearGradient id="wood" x1="0" y1="0" x2="1" y2="0">
    <stop offset="0" stop-color="#6c3e21"/><stop offset=".5" stop-color="#a96b35"/><stop offset="1" stop-color="#4c2b1a"/>
  </linearGradient>
  <linearGradient id="mud" x1="0" y1="0" x2="1" y2="1">
    <stop offset="0" stop-color="#9b7044"/><stop offset=".6" stop-color="#704728"/><stop offset="1" stop-color="#4b301f"/>
  </linearGradient>
  <linearGradient id="drop" x1="0" y1="0" x2="1" y2="1">
    <stop offset="0" stop-color="#f1ffff" stop-opacity=".98"/><stop offset=".45" stop-color="#75d8f2" stop-opacity=".9"/><stop offset="1" stop-color="#258dcc" stop-opacity=".9"/>
  </linearGradient>
  <filter id="shadow" x="-30%" y="-30%" width="160%" height="170%">
    <feDropShadow dx="0" dy="9" stdDeviation="8" flood-color="#12382d" flood-opacity=".30"/>
  </filter>
  <filter id="soft" x="-30%" y="-30%" width="160%" height="160%">
    <feGaussianBlur stdDeviation="5"/>
  </filter>
</defs>

<g filter="url(#shadow)" stroke-linecap="round" stroke-linejoin="round">
<path d="M250 -35 L245 155 C245 190 205 208 175 238 C245 260 295 260 365 238 C330 205 270 185 270 150 L270 -35" fill="none" stroke="#bd9754" stroke-width="102"/><path d="M250 -35 L245 155 C245 190 205 208 175 238 C245 260 295 260 365 238 C330 205 270 185 270 150 L270 -35" fill="none" stroke="#7f653d" stroke-width="88" opacity=".5"/><path d="M250 -35 L245 155 C245 190 205 208 175 238 C245 260 295 260 365 238 C330 205 270 185 270 150 L270 -35" fill="none" stroke="url(#water)" stroke-width="72"/><path d="M250 -35 L245 155 C245 190 205 208 175 238 C245 260 295 260 365 238 C330 205 270 185 270 150 L270 -35" fill="none" stroke="#baf2f5" stroke-width="7.2" opacity=".55"/><path d="M172 232 Q255 270 368 230" fill="#c8a05d" stroke="#6c522d" stroke-width="12"/><path d="M185 250 C225 305 305 305 350 250" fill="#f4fbff" opacity=".78"/><path d="M205.0 245.0 l0.0 40.0" stroke="#8fe7ff" stroke-width="6" opacity="0.88"/><path d="M251.2 295.4 l0.0 50.0" stroke="#8fe7ff" stroke-width="6" opacity="0.88"/><path d="M297.5 253.6 l0.0 60.0" stroke="#8fe7ff" stroke-width="6" opacity="0.88"/><path d="M217.5 303.9 l0.0 70.0" stroke="#8fe7ff" stroke-width="6" opacity="0.88"/><path d="M263.8 262.1 l0.0 40.0" stroke="#8fe7ff" stroke-width="6" opacity="0.88"/><path d="M310.0 312.4 l0.0 50.0" stroke="#8fe7ff" stroke-width="6" opacity="0.88"/><path d="M230.0 270.6 l0.0 60.0" stroke="#8fe7ff" stroke-width="6" opacity="0.88"/><path d="M276.2 321.0 l0.0 70.0" stroke="#8fe7ff" stroke-width="6" opacity="0.88"/><path d="M322.5 279.2 l0.0 40.0" stroke="#8fe7ff" stroke-width="6" opacity="0.88"/><ellipse cx="70" cy="90" rx="12" ry="8" fill="#9f936f" opacity=".85"/><ellipse cx="153" cy="199" rx="16" ry="11" fill="#9f936f" opacity=".85"/><ellipse cx="236" cy="308" rx="20" ry="8" fill="#9f936f" opacity=".85"/>
</g>
</svg>
