<?xml version="1.0" encoding="UTF-8"?>
<svg xmlns="http://www.w3.org/2000/svg" viewBox="0 0 512 512" role="img" aria-labelledby="title desc">
<title id="title">双生古树</title>
<desc id="desc">星芽岛雨林素材：双生古树</desc>

<defs>
  <linearGradient id="water" x1="0" y1="0" x2="1" y2="1">
    <stop offset="0" stop-color="#65d6e8"/><stop offset=".55" stop-color="#208ec5"/><stop offset="1" stop-color="#14599e"/>
  </linearGradient>
  <linearGradient id="leaf" x1="0" y1="0" x2="1" y2="1">
    <stop offset="0" stop-color="#8ed84c"/><stop offset=".55" stop-color="#3b9f3d"/><stop offset="1" stop-color="#176b38"/>
  </linearGradient>
  <linearGradient id="leafDark" x1="0" y1="0" x2="1" y2="1">
    <stop offset="0" stop-color="#4eb44a"/><stop offset="1" stop-color="#0e5638"/>
  </linearGradient>
  <linearGradient id="wood" x1="0" y1="0" x2="1" y2="0">
    <stop offset="0" stop-color="#6c3e21"/><stop offset=".5" stop-color="#a96b35"/><stop offset="1" stop-color="#4c2b1a"/>
  </linearGradient>
  <linearGradient id="mud" x1="0" y1="0" x2="1" y2="1">
    <stop offset="0" stop-color="#9b7044"/><stop offset=".6" stop-color="#704728"/><stop offset="1" stop-color="#4b301f"/>
  </linearGradient>
  <linearGradient id="drop" x1="0" y1="0" x2="1" y2="1">
    <stop offset="0" stop-color="#f1ffff" stop-opacity=".98"/><stop offset=".45" stop-color="#75d8f2" stop-opacity=".9"/><stop offset="1" stop-color="#258dcc" stop-opacity=".9"/>
  </linearGradient>
  <filter id="shadow" x="-30%" y="-30%" width="160%" height="170%">
    <feDropShadow dx="0" dy="9" stdDeviation="8" flood-color="#12382d" flood-opacity=".30"/>
  </filter>
  <filter id="soft" x="-30%" y="-30%" width="160%" height="160%">
    <feGaussianBlur stdDeviation="5"/>
  </filter>
</defs>

<g filter="url(#shadow)" stroke-linecap="round" stroke-linejoin="round">
<ellipse cx="256" cy="448" rx="185" ry="30" fill="#315f31" opacity=".45"/><polygon points="168.0,440 162.57999999999998,130 211.42000000000002,130 242.0,440" fill="url(#wood)" stroke="#4c2b1a" stroke-width="9"/><path d="M191.68 420 Q183.3 190 187 138" fill="none" stroke="#d09352" stroke-width="7" opacity=".55"/><polygon points="278.0,440 310.58,120 359.42,120 352.0,440" fill="url(#wood)" stroke="#4c2b1a" stroke-width="9"/><path d="M301.68 420 Q331.3 180 335 128" fill="none" stroke="#d09352" stroke-width="7" opacity=".55"/><circle cx="171.0" cy="151.0" r="56.7" fill="#4bb552" stroke="#145b32" stroke-width="7"/><circle cx="211.5" cy="107.8" r="67.392" fill="#2e8f3e" stroke="#145b32" stroke-width="7"/><circle cx="265.5" cy="89.8" r="80.784" fill="#3ba84b" stroke="#145b32" stroke-width="7"/><circle cx="319.5" cy="124.0" r="58.32" fill="#237a3b" stroke="#145b32" stroke-width="7"/><circle cx="340.2" cy="172.6" r="53.568000000000005" fill="#4bb552" stroke="#145b32" stroke-width="7"/><circle cx="277.2" cy="167.2" r="87.21000000000001" fill="#2e8f3e" stroke="#145b32" stroke-width="7"/><circle cx="211.5" cy="179.8" r="66.42" fill="#3ba84b" stroke="#145b32" stroke-width="7"/><path d="M215 285 Q260 230 305 285" fill="none" stroke="#8d5a2d" stroke-width="20"/>
</g>
</svg>
