<?xml version="1.0" encoding="UTF-8"?>
<svg xmlns="http://www.w3.org/2000/svg" viewBox="0 0 512 512" role="img" aria-labelledby="title desc">
<title id="title">盛开大王花</title>
<desc id="desc">星芽岛雨林素材：盛开大王花</desc>

<defs>
  <linearGradient id="water" x1="0" y1="0" x2="1" y2="1">
    <stop offset="0" stop-color="#65d6e8"/><stop offset=".55" stop-color="#208ec5"/><stop offset="1" stop-color="#14599e"/>
  </linearGradient>
  <linearGradient id="leaf" x1="0" y1="0" x2="1" y2="1">
    <stop offset="0" stop-color="#8ed84c"/><stop offset=".55" stop-color="#3b9f3d"/><stop offset="1" stop-color="#176b38"/>
  </linearGradient>
  <linearGradient id="leafDark" x1="0" y1="0" x2="1" y2="1">
    <stop offset="0" stop-color="#4eb44a"/><stop offset="1" stop-color="#0e5638"/>
  </linearGradient>
  <linearGradient id="wood" x1="0" y1="0" x2="1" y2="0">
    <stop offset="0" stop-color="#6c3e21"/><stop offset=".5" stop-color="#a96b35"/><stop offset="1" stop-color="#4c2b1a"/>
  </linearGradient>
  <linearGradient id="mud" x1="0" y1="0" x2="1" y2="1">
    <stop offset="0" stop-color="#9b7044"/><stop offset=".6" stop-color="#704728"/><stop offset="1" stop-color="#4b301f"/>
  </linearGradient>
  <linearGradient id="drop" x1="0" y1="0" x2="1" y2="1">
    <stop offset="0" stop-color="#f1ffff" stop-opacity=".98"/><stop offset=".45" stop-color="#75d8f2" stop-opacity=".9"/><stop offset="1" stop-color="#258dcc" stop-opacity=".9"/>
  </linearGradient>
  <filter id="shadow" x="-30%" y="-30%" width="160%" height="170%">
    <feDropShadow dx="0" dy="9" stdDeviation="8" flood-color="#12382d" flood-opacity=".30"/>
  </filter>
  <filter id="soft" x="-30%" y="-30%" width="160%" height="160%">
    <feGaussianBlur stdDeviation="5"/>
  </filter>
</defs>

<g filter="url(#shadow)" stroke-linecap="round" stroke-linejoin="round">
<ellipse cx="256" cy="408" rx="180" ry="40" fill="#35643a" opacity=".45"/><ellipse cx="256" cy="192.5" rx="66.25" ry="93.75" transform="rotate(0 256 280)" fill="#d94d55" stroke="#702737" stroke-width="10.0"/><ellipse cx="256" cy="192.5" rx="66.25" ry="93.75" transform="rotate(72 256 280)" fill="#d94d55" stroke="#702737" stroke-width="10.0"/><ellipse cx="256" cy="192.5" rx="66.25" ry="93.75" transform="rotate(144 256 280)" fill="#d94d55" stroke="#702737" stroke-width="10.0"/><ellipse cx="256" cy="192.5" rx="66.25" ry="93.75" transform="rotate(216 256 280)" fill="#d94d55" stroke="#702737" stroke-width="10.0"/><ellipse cx="256" cy="192.5" rx="66.25" ry="93.75" transform="rotate(288 256 280)" fill="#d94d55" stroke="#702737" stroke-width="10.0"/><circle cx="256" cy="280" r="72.5" fill="#7b2c3c" stroke="#54202e" stroke-width="10.0"/><circle cx="256" cy="280" r="38.75" fill="#2f1721"/><circle cx="308.5" cy="280.0" r="6.25" fill="#f5c56d"/><circle cx="304.0" cy="301.4" r="6.25" fill="#f5c56d"/><circle cx="291.1" cy="319.0" r="6.25" fill="#f5c56d"/><circle cx="272.2" cy="329.9" r="6.25" fill="#f5c56d"/><circle cx="250.5" cy="332.2" r="6.25" fill="#f5c56d"/><circle cx="229.8" cy="325.5" r="6.25" fill="#f5c56d"/><circle cx="213.5" cy="310.9" r="6.25" fill="#f5c56d"/><circle cx="204.6" cy="290.9" r="6.25" fill="#f5c56d"/><circle cx="204.6" cy="269.1" r="6.25" fill="#f5c56d"/><circle cx="213.5" cy="249.1" r="6.25" fill="#f5c56d"/><circle cx="229.7" cy="234.5" r="6.25" fill="#f5c56d"/><circle cx="250.5" cy="227.8" r="6.25" fill="#f5c56d"/><circle cx="272.2" cy="230.1" r="6.25" fill="#f5c56d"/><circle cx="291.1" cy="241.0" r="6.25" fill="#f5c56d"/><circle cx="304.0" cy="258.6" r="6.25" fill="#f5c56d"/>
</g>
</svg>
