<?xml version="1.0" encoding="UTF-8"?>
<svg xmlns="http://www.w3.org/2000/svg" viewBox="0 0 512 512" role="img" aria-labelledby="title desc">
<title id="title">局部雨幕</title>
<desc id="desc">星芽岛雨林素材：局部雨幕</desc>

<defs>
  <linearGradient id="water" x1="0" y1="0" x2="1" y2="1">
    <stop offset="0" stop-color="#65d6e8"/><stop offset=".55" stop-color="#208ec5"/><stop offset="1" stop-color="#14599e"/>
  </linearGradient>
  <linearGradient id="leaf" x1="0" y1="0" x2="1" y2="1">
    <stop offset="0" stop-color="#8ed84c"/><stop offset=".55" stop-color="#3b9f3d"/><stop offset="1" stop-color="#176b38"/>
  </linearGradient>
  <linearGradient id="leafDark" x1="0" y1="0" x2="1" y2="1">
    <stop offset="0" stop-color="#4eb44a"/><stop offset="1" stop-color="#0e5638"/>
  </linearGradient>
  <linearGradient id="wood" x1="0" y1="0" x2="1" y2="0">
    <stop offset="0" stop-color="#6c3e21"/><stop offset=".5" stop-color="#a96b35"/><stop offset="1" stop-color="#4c2b1a"/>
  </linearGradient>
  <linearGradient id="mud" x1="0" y1="0" x2="1" y2="1">
    <stop offset="0" stop-color="#9b7044"/><stop offset=".6" stop-color="#704728"/><stop offset="1" stop-color="#4b301f"/>
  </linearGradient>
  <linearGradient id="drop" x1="0" y1="0" x2="1" y2="1">
    <stop offset="0" stop-color="#f1ffff" stop-opacity=".98"/><stop offset=".45" stop-color="#75d8f2" stop-opacity=".9"/><stop offset="1" stop-color="#258dcc" stop-opacity=".9"/>
  </linearGradient>
  <filter id="shadow" x="-30%" y="-30%" width="160%" height="170%">
    <feDropShadow dx="0" dy="9" stdDeviation="8" flood-color="#12382d" flood-opacity=".30"/>
  </filter>
  <filter id="soft" x="-30%" y="-30%" width="160%" height="160%">
    <feGaussianBlur stdDeviation="5"/>
  </filter>
</defs>

<g filter="url(#shadow)" stroke-linecap="round" stroke-linejoin="round">
<path d="M265 125 C280 80 350 75 370 130 C415 130 440 165 425 205 H250 C220 190 230 145 265 125Z" fill="#d9eff0" stroke="#477a83" stroke-width="8"/><path d="M260.0 200.0 l2.8 39.9" stroke="#8fe7ff" stroke-width="6" opacity="0.88"/><path d="M322.9 335.1 l3.5 49.9" stroke="#8fe7ff" stroke-width="6" opacity="0.88"/><path d="M385.8 222.9 l4.2 59.9" stroke="#8fe7ff" stroke-width="6" opacity="0.88"/><path d="M277.0 358.1 l4.9 69.8" stroke="#8fe7ff" stroke-width="6" opacity="0.88"/><path d="M339.9 245.9 l2.8 39.9" stroke="#8fe7ff" stroke-width="6" opacity="0.88"/><path d="M402.8 381.1 l3.5 49.9" stroke="#8fe7ff" stroke-width="6" opacity="0.88"/><path d="M294.0 268.9 l4.2 59.9" stroke="#8fe7ff" stroke-width="6" opacity="0.88"/><path d="M356.9 404.0 l4.9 69.8" stroke="#8fe7ff" stroke-width="6" opacity="0.88"/><path d="M419.8 291.8 l2.8 39.9" stroke="#8fe7ff" stroke-width="6" opacity="0.88"/><path d="M311.0 426.9 l3.5 49.9" stroke="#8fe7ff" stroke-width="6" opacity="0.88"/><path d="M373.9 314.8 l4.2 59.9" stroke="#8fe7ff" stroke-width="6" opacity="0.88"/><path d="M265.1 202.6 l4.9 69.8" stroke="#8fe7ff" stroke-width="6" opacity="0.88"/><path d="M328.0 337.7 l2.8 39.9" stroke="#8fe7ff" stroke-width="6" opacity="0.88"/><path d="M390.9 225.5 l3.5 49.9" stroke="#8fe7ff" stroke-width="6" opacity="0.88"/><path d="M282.1 360.6 l4.2 59.9" stroke="#8fe7ff" stroke-width="6" opacity="0.88"/><path d="M345.0 248.4 l4.9 69.8" stroke="#8fe7ff" stroke-width="6" opacity="0.88"/><path d="M407.9 383.6 l2.8 39.9" stroke="#8fe7ff" stroke-width="6" opacity="0.88"/><path d="M299.1 271.4 l3.5 49.9" stroke="#8fe7ff" stroke-width="6" opacity="0.88"/><path d="M362.0 406.6 l4.2 59.9" stroke="#8fe7ff" stroke-width="6" opacity="0.88"/><path d="M424.9 294.4 l4.9 69.8" stroke="#8fe7ff" stroke-width="6" opacity="0.88"/><path d="M316.1 429.5 l2.8 39.9" stroke="#8fe7ff" stroke-width="6" opacity="0.88"/><path d="M379.0 317.3 l3.5 49.9" stroke="#8fe7ff" stroke-width="6" opacity="0.88"/><path d="M270.2 205.1 l4.2 59.9" stroke="#8fe7ff" stroke-width="6" opacity="0.88"/><path d="M333.1 340.2 l4.9 69.8" stroke="#8fe7ff" stroke-width="6" opacity="0.88"/><path d="M396.0 228.1 l2.8 39.9" stroke="#8fe7ff" stroke-width="6" opacity="0.88"/><path d="M287.2 363.2 l3.5 49.9" stroke="#8fe7ff" stroke-width="6" opacity="0.88"/><path d="M350.1 251.0 l4.2 59.9" stroke="#8fe7ff" stroke-width="6" opacity="0.88"/><path d="M413.0 386.1 l4.9 69.8" stroke="#8fe7ff" stroke-width="6" opacity="0.88"/><path d="M304.2 273.9 l2.8 39.9" stroke="#8fe7ff" stroke-width="6" opacity="0.88"/><path d="M367.1 409.1 l3.5 49.9" stroke="#8fe7ff" stroke-width="6" opacity="0.88"/><path d="M430.0 296.9 l4.2 59.9" stroke="#8fe7ff" stroke-width="6" opacity="0.88"/><path d="M321.2 432.1 l4.9 69.8" stroke="#8fe7ff" stroke-width="6" opacity="0.88"/><path d="M384.1 319.9 l2.8 39.9" stroke="#8fe7ff" stroke-width="6" opacity="0.88"/><path d="M275.3 207.7 l3.5 49.9" stroke="#8fe7ff" stroke-width="6" opacity="0.88"/>
</g>
</svg>
