<?xml version="1.0" encoding="UTF-8"?>
<svg xmlns="http://www.w3.org/2000/svg" viewBox="0 0 512 512" role="img" aria-labelledby="title desc">
<title id="title">中雨</title>
<desc id="desc">星芽岛雨林素材：中雨</desc>

<defs>
  <linearGradient id="water" x1="0" y1="0" x2="1" y2="1">
    <stop offset="0" stop-color="#65d6e8"/><stop offset=".55" stop-color="#208ec5"/><stop offset="1" stop-color="#14599e"/>
  </linearGradient>
  <linearGradient id="leaf" x1="0" y1="0" x2="1" y2="1">
    <stop offset="0" stop-color="#8ed84c"/><stop offset=".55" stop-color="#3b9f3d"/><stop offset="1" stop-color="#176b38"/>
  </linearGradient>
  <linearGradient id="leafDark" x1="0" y1="0" x2="1" y2="1">
    <stop offset="0" stop-color="#4eb44a"/><stop offset="1" stop-color="#0e5638"/>
  </linearGradient>
  <linearGradient id="wood" x1="0" y1="0" x2="1" y2="0">
    <stop offset="0" stop-color="#6c3e21"/><stop offset=".5" stop-color="#a96b35"/><stop offset="1" stop-color="#4c2b1a"/>
  </linearGradient>
  <linearGradient id="mud" x1="0" y1="0" x2="1" y2="1">
    <stop offset="0" stop-color="#9b7044"/><stop offset=".6" stop-color="#704728"/><stop offset="1" stop-color="#4b301f"/>
  </linearGradient>
  <linearGradient id="drop" x1="0" y1="0" x2="1" y2="1">
    <stop offset="0" stop-color="#f1ffff" stop-opacity=".98"/><stop offset=".45" stop-color="#75d8f2" stop-opacity=".9"/><stop offset="1" stop-color="#258dcc" stop-opacity=".9"/>
  </linearGradient>
  <filter id="shadow" x="-30%" y="-30%" width="160%" height="170%">
    <feDropShadow dx="0" dy="9" stdDeviation="8" flood-color="#12382d" flood-opacity=".30"/>
  </filter>
  <filter id="soft" x="-30%" y="-30%" width="160%" height="160%">
    <feGaussianBlur stdDeviation="5"/>
  </filter>
</defs>

<g filter="url(#shadow)" stroke-linecap="round" stroke-linejoin="round">
<path d="M115 150 C125 95 175 75 220 105 C245 55 330 60 350 120 C410 112 438 160 420 205 H115 C70 205 72 160 115 150Z" fill="#d9eff0" stroke="#477a83" stroke-width="8" opacity=".88"/><path d="M85.0 205.0 l0.0 28.0" stroke="#8fe7ff" stroke-width="4" opacity="0.72"/><path d="M212.7 326.9 l0.0 38.0" stroke="#8fe7ff" stroke-width="4" opacity="0.72"/><path d="M340.3 225.7 l0.0 48.0" stroke="#8fe7ff" stroke-width="4" opacity="0.72"/><path d="M119.5 347.6 l0.0 58.0" stroke="#8fe7ff" stroke-width="4" opacity="0.72"/><path d="M247.2 246.4 l0.0 28.0" stroke="#8fe7ff" stroke-width="4" opacity="0.72"/><path d="M374.8 368.3 l0.0 38.0" stroke="#8fe7ff" stroke-width="4" opacity="0.72"/><path d="M154.0 267.1 l0.0 48.0" stroke="#8fe7ff" stroke-width="4" opacity="0.72"/><path d="M281.6 389.0 l0.0 58.0" stroke="#8fe7ff" stroke-width="4" opacity="0.72"/><path d="M409.3 287.8 l0.0 28.0" stroke="#8fe7ff" stroke-width="4" opacity="0.72"/><path d="M188.5 409.7 l0.0 38.0" stroke="#8fe7ff" stroke-width="4" opacity="0.72"/><path d="M316.1 308.5 l0.0 48.0" stroke="#8fe7ff" stroke-width="4" opacity="0.72"/><path d="M95.3 207.3 l0.0 58.0" stroke="#8fe7ff" stroke-width="4" opacity="0.72"/><path d="M223.0 329.2 l0.0 28.0" stroke="#8fe7ff" stroke-width="4" opacity="0.72"/><path d="M350.6 228.0 l0.0 38.0" stroke="#8fe7ff" stroke-width="4" opacity="0.72"/><path d="M129.8 349.9 l0.0 48.0" stroke="#8fe7ff" stroke-width="4" opacity="0.72"/><path d="M257.5 248.7 l0.0 58.0" stroke="#8fe7ff" stroke-width="4" opacity="0.72"/><path d="M385.1 370.6 l0.0 28.0" stroke="#8fe7ff" stroke-width="4" opacity="0.72"/><path d="M164.3 269.4 l0.0 38.0" stroke="#8fe7ff" stroke-width="4" opacity="0.72"/><path d="M292.0 391.3 l0.0 48.0" stroke="#8fe7ff" stroke-width="4" opacity="0.72"/><path d="M419.6 290.1 l0.0 58.0" stroke="#8fe7ff" stroke-width="4" opacity="0.72"/><path d="M198.8 412.0 l0.0 28.0" stroke="#8fe7ff" stroke-width="4" opacity="0.72"/><path d="M326.5 310.8 l0.0 38.0" stroke="#8fe7ff" stroke-width="4" opacity="0.72"/><path d="M105.7 209.6 l0.0 48.0" stroke="#8fe7ff" stroke-width="4" opacity="0.72"/><path d="M233.3 331.5 l0.0 58.0" stroke="#8fe7ff" stroke-width="4" opacity="0.72"/><path d="M361.0 230.3 l0.0 28.0" stroke="#8fe7ff" stroke-width="4" opacity="0.72"/><path d="M140.2 352.2 l0.0 38.0" stroke="#8fe7ff" stroke-width="4" opacity="0.72"/><path d="M267.9 251.0 l0.0 48.0" stroke="#8fe7ff" stroke-width="4" opacity="0.72"/><path d="M395.5 372.9 l0.0 58.0" stroke="#8fe7ff" stroke-width="4" opacity="0.72"/><path d="M174.7 271.7 l0.0 28.0" stroke="#8fe7ff" stroke-width="4" opacity="0.72"/>
</g>
</svg>
