<?xml version="1.0" encoding="UTF-8"?>
<svg xmlns="http://www.w3.org/2000/svg" viewBox="0 0 512 512" role="img" aria-labelledby="title desc">
<title id="title">美洲豹</title>
<desc id="desc">星芽岛雨林素材：美洲豹</desc>

<defs>
  <linearGradient id="water" x1="0" y1="0" x2="1" y2="1">
    <stop offset="0" stop-color="#65d6e8"/><stop offset=".55" stop-color="#208ec5"/><stop offset="1" stop-color="#14599e"/>
  </linearGradient>
  <linearGradient id="leaf" x1="0" y1="0" x2="1" y2="1">
    <stop offset="0" stop-color="#8ed84c"/><stop offset=".55" stop-color="#3b9f3d"/><stop offset="1" stop-color="#176b38"/>
  </linearGradient>
  <linearGradient id="leafDark" x1="0" y1="0" x2="1" y2="1">
    <stop offset="0" stop-color="#4eb44a"/><stop offset="1" stop-color="#0e5638"/>
  </linearGradient>
  <linearGradient id="wood" x1="0" y1="0" x2="1" y2="0">
    <stop offset="0" stop-color="#6c3e21"/><stop offset=".5" stop-color="#a96b35"/><stop offset="1" stop-color="#4c2b1a"/>
  </linearGradient>
  <linearGradient id="mud" x1="0" y1="0" x2="1" y2="1">
    <stop offset="0" stop-color="#9b7044"/><stop offset=".6" stop-color="#704728"/><stop offset="1" stop-color="#4b301f"/>
  </linearGradient>
  <linearGradient id="drop" x1="0" y1="0" x2="1" y2="1">
    <stop offset="0" stop-color="#f1ffff" stop-opacity=".98"/><stop offset=".45" stop-color="#75d8f2" stop-opacity=".9"/><stop offset="1" stop-color="#258dcc" stop-opacity=".9"/>
  </linearGradient>
  <filter id="shadow" x="-30%" y="-30%" width="160%" height="170%">
    <feDropShadow dx="0" dy="9" stdDeviation="8" flood-color="#12382d" flood-opacity=".30"/>
  </filter>
  <filter id="soft" x="-30%" y="-30%" width="160%" height="160%">
    <feGaussianBlur stdDeviation="5"/>
  </filter>
</defs>

<g filter="url(#shadow)" stroke-linecap="round" stroke-linejoin="round">
<path d="M120 330 Q95 285 120 235 Q145 185 235 195 L355 225 Q400 245 390 305 Q380 350 315 355 H165 Q125 352 120 330Z" fill="#e4a33b" stroke="#533624" stroke-width="9"/><circle cx="370" cy="230" r="55" fill="#e4a33b" stroke="#533624" stroke-width="9"/><path d="M342 188 L355 150 L378 190 M395 190 L420 155 L420 210" fill="#e4a33b" stroke="#533624" stroke-width="8"/><path d="M135 325 L125 430 M220 345 L215 440 M315 345 L325 435" stroke="#533624" stroke-width="22"/><path d="M115 260 Q55 250 70 190" fill="none" stroke="#e4a33b" stroke-width="24"/><circle cx="170" cy="235" r="8" fill="#533624"/><circle cx="220" cy="275" r="8" fill="#533624"/><circle cx="270" cy="230" r="8" fill="#533624"/><circle cx="315" cy="285" r="8" fill="#533624"/><circle cx="150" cy="305" r="8" fill="#533624"/><circle cx="260" cy="325" r="8" fill="#533624"/><circle cx="365" cy="230" r="8" fill="#533624"/><circle cx="385" cy="220" r="6"/><path d="M405 245 l18 8" stroke="#533624" stroke-width="5"/>
</g>
</svg>
