<?xml version="1.0" encoding="UTF-8"?>
<svg xmlns="http://www.w3.org/2000/svg" viewBox="0 0 512 512" role="img" aria-labelledby="title desc">
<title id="title">甲虫</title>
<desc id="desc">星芽岛雨林素材：甲虫</desc>

<defs>
  <linearGradient id="water" x1="0" y1="0" x2="1" y2="1">
    <stop offset="0" stop-color="#65d6e8"/><stop offset=".55" stop-color="#208ec5"/><stop offset="1" stop-color="#14599e"/>
  </linearGradient>
  <linearGradient id="leaf" x1="0" y1="0" x2="1" y2="1">
    <stop offset="0" stop-color="#8ed84c"/><stop offset=".55" stop-color="#3b9f3d"/><stop offset="1" stop-color="#176b38"/>
  </linearGradient>
  <linearGradient id="leafDark" x1="0" y1="0" x2="1" y2="1">
    <stop offset="0" stop-color="#4eb44a"/><stop offset="1" stop-color="#0e5638"/>
  </linearGradient>
  <linearGradient id="wood" x1="0" y1="0" x2="1" y2="0">
    <stop offset="0" stop-color="#6c3e21"/><stop offset=".5" stop-color="#a96b35"/><stop offset="1" stop-color="#4c2b1a"/>
  </linearGradient>
  <linearGradient id="mud" x1="0" y1="0" x2="1" y2="1">
    <stop offset="0" stop-color="#9b7044"/><stop offset=".6" stop-color="#704728"/><stop offset="1" stop-color="#4b301f"/>
  </linearGradient>
  <linearGradient id="drop" x1="0" y1="0" x2="1" y2="1">
    <stop offset="0" stop-color="#f1ffff" stop-opacity=".98"/><stop offset=".45" stop-color="#75d8f2" stop-opacity=".9"/><stop offset="1" stop-color="#258dcc" stop-opacity=".9"/>
  </linearGradient>
  <filter id="shadow" x="-30%" y="-30%" width="160%" height="170%">
    <feDropShadow dx="0" dy="9" stdDeviation="8" flood-color="#12382d" flood-opacity=".30"/>
  </filter>
  <filter id="soft" x="-30%" y="-30%" width="160%" height="160%">
    <feGaussianBlur stdDeviation="5"/>
  </filter>
</defs>

<g filter="url(#shadow)" stroke-linecap="round" stroke-linejoin="round">
<ellipse cx="255" cy="305" rx="92" ry="112" fill="#3d6f54" stroke="#1b342a" stroke-width="10"/><path d="M255 195 V415" stroke="#1b342a" stroke-width="8"/><path d="M185 240 Q255 185 325 240" fill="#315b48" stroke="#1b342a" stroke-width="8"/><circle cx="255" cy="175" r="48" fill="#2a4a3c" stroke="#1b342a" stroke-width="9"/><path d="M230 145 Q190 95 155 105 M280 145 Q320 95 355 105" fill="none" stroke="#1b342a" stroke-width="8"/><path d="M185 270 L105 230 M180 315 L95 315 M190 365 L115 410 M325 270 L405 230 M330 315 L415 315 M320 365 L395 410" stroke="#1b342a" stroke-width="13"/><circle cx="215" cy="255" r="9" fill="#d5c84e"/><circle cx="295" cy="255" r="9" fill="#d5c84e"/><circle cx="215" cy="320" r="9" fill="#d5c84e"/><circle cx="295" cy="320" r="9" fill="#d5c84e"/><circle cx="225" cy="375" r="9" fill="#d5c84e"/><circle cx="285" cy="375" r="9" fill="#d5c84e"/>
</g>
</svg>
