<?xml version="1.0" encoding="UTF-8"?>
<svg xmlns="http://www.w3.org/2000/svg" viewBox="0 0 512 512" role="img" aria-labelledby="title desc">
<title id="title">空心古树</title>
<desc id="desc">星芽岛雨林素材：空心古树</desc>

<defs>
  <linearGradient id="water" x1="0" y1="0" x2="1" y2="1">
    <stop offset="0" stop-color="#65d6e8"/><stop offset=".55" stop-color="#208ec5"/><stop offset="1" stop-color="#14599e"/>
  </linearGradient>
  <linearGradient id="leaf" x1="0" y1="0" x2="1" y2="1">
    <stop offset="0" stop-color="#8ed84c"/><stop offset=".55" stop-color="#3b9f3d"/><stop offset="1" stop-color="#176b38"/>
  </linearGradient>
  <linearGradient id="leafDark" x1="0" y1="0" x2="1" y2="1">
    <stop offset="0" stop-color="#4eb44a"/><stop offset="1" stop-color="#0e5638"/>
  </linearGradient>
  <linearGradient id="wood" x1="0" y1="0" x2="1" y2="0">
    <stop offset="0" stop-color="#6c3e21"/><stop offset=".5" stop-color="#a96b35"/><stop offset="1" stop-color="#4c2b1a"/>
  </linearGradient>
  <linearGradient id="mud" x1="0" y1="0" x2="1" y2="1">
    <stop offset="0" stop-color="#9b7044"/><stop offset=".6" stop-color="#704728"/><stop offset="1" stop-color="#4b301f"/>
  </linearGradient>
  <linearGradient id="drop" x1="0" y1="0" x2="1" y2="1">
    <stop offset="0" stop-color="#f1ffff" stop-opacity=".98"/><stop offset=".45" stop-color="#75d8f2" stop-opacity=".9"/><stop offset="1" stop-color="#258dcc" stop-opacity=".9"/>
  </linearGradient>
  <filter id="shadow" x="-30%" y="-30%" width="160%" height="170%">
    <feDropShadow dx="0" dy="9" stdDeviation="8" flood-color="#12382d" flood-opacity=".30"/>
  </filter>
  <filter id="soft" x="-30%" y="-30%" width="160%" height="160%">
    <feGaussianBlur stdDeviation="5"/>
  </filter>
</defs>

<g filter="url(#shadow)" stroke-linecap="round" stroke-linejoin="round">
<ellipse cx="256" cy="448" rx="185" ry="30" fill="#315f31" opacity=".45"/><polygon points="199.0,440 214.06,125 291.94,125 317.0,440" fill="url(#wood)" stroke="#4c2b1a" stroke-width="9"/><path d="M236.76 420 Q247.1 185 253 133" fill="none" stroke="#d09352" stroke-width="7" opacity=".55"/><ellipse cx="256.75" cy="320.3" rx="21.24" ry="40.95" fill="#25170f" stroke="#c18a4b" stroke-width="7"/><circle cx="186.2" cy="150.2" r="58.548" fill="#237a3b" stroke="#145b32" stroke-width="7"/><circle cx="223.1" cy="110.84" r="57.56399999999999" fill="#4bb552" stroke="#145b32" stroke-width="7"/><circle cx="272.3" cy="94.44" r="69.27359999999999" fill="#2e8f3e" stroke="#145b32" stroke-width="7"/><circle cx="321.5" cy="125.6" r="60.2208" fill="#3ba84b" stroke="#145b32" stroke-width="7"/><circle cx="340.36" cy="169.88" r="45.756" fill="#237a3b" stroke="#145b32" stroke-width="7"/><circle cx="282.96" cy="164.96" r="74.78399999999999" fill="#4bb552" stroke="#145b32" stroke-width="7"/><circle cx="223.1" cy="176.44" r="68.5848" fill="#2e8f3e" stroke="#145b32" stroke-width="7"/><circle cx="245" cy="325" r="8" fill="#ffe7a1"/>
</g>
</svg>
