<?xml version="1.0" encoding="UTF-8"?>
<svg xmlns="http://www.w3.org/2000/svg" viewBox="0 0 512 512" role="img" aria-labelledby="title desc">
<title id="title">小型蕨类</title>
<desc id="desc">星芽岛雨林素材：小型蕨类</desc>

<defs>
  <linearGradient id="water" x1="0" y1="0" x2="1" y2="1">
    <stop offset="0" stop-color="#65d6e8"/><stop offset=".55" stop-color="#208ec5"/><stop offset="1" stop-color="#14599e"/>
  </linearGradient>
  <linearGradient id="leaf" x1="0" y1="0" x2="1" y2="1">
    <stop offset="0" stop-color="#8ed84c"/><stop offset=".55" stop-color="#3b9f3d"/><stop offset="1" stop-color="#176b38"/>
  </linearGradient>
  <linearGradient id="leafDark" x1="0" y1="0" x2="1" y2="1">
    <stop offset="0" stop-color="#4eb44a"/><stop offset="1" stop-color="#0e5638"/>
  </linearGradient>
  <linearGradient id="wood" x1="0" y1="0" x2="1" y2="0">
    <stop offset="0" stop-color="#6c3e21"/><stop offset=".5" stop-color="#a96b35"/><stop offset="1" stop-color="#4c2b1a"/>
  </linearGradient>
  <linearGradient id="mud" x1="0" y1="0" x2="1" y2="1">
    <stop offset="0" stop-color="#9b7044"/><stop offset=".6" stop-color="#704728"/><stop offset="1" stop-color="#4b301f"/>
  </linearGradient>
  <linearGradient id="drop" x1="0" y1="0" x2="1" y2="1">
    <stop offset="0" stop-color="#f1ffff" stop-opacity=".98"/><stop offset=".45" stop-color="#75d8f2" stop-opacity=".9"/><stop offset="1" stop-color="#258dcc" stop-opacity=".9"/>
  </linearGradient>
  <filter id="shadow" x="-30%" y="-30%" width="160%" height="170%">
    <feDropShadow dx="0" dy="9" stdDeviation="8" flood-color="#12382d" flood-opacity=".30"/>
  </filter>
  <filter id="soft" x="-30%" y="-30%" width="160%" height="160%">
    <feGaussianBlur stdDeviation="5"/>
  </filter>
</defs>

<g filter="url(#shadow)" stroke-linecap="round" stroke-linejoin="round">
<ellipse cx="256" cy="430" rx="175" ry="24" fill="#2f6635" opacity=".35"/><path d="M220 415.0 Q216.25 351.25 220 250.0" fill="none" stroke="#266b36" stroke-width="7.5"/><path d="M220 385.0 Q191.125 366.25 167.5 381.25" fill="none" stroke="#4ca848" stroke-width="9.75"/><path d="M220 381.25 Q248.875 361.0 272.5 376.0" fill="none" stroke="#4ca848" stroke-width="9.75"/><path d="M220 370.0 Q192.3625 351.25 169.75 366.25" fill="none" stroke="#4ca848" stroke-width="9.75"/><path d="M220 366.25 Q247.6375 346.0 270.25 361.0" fill="none" stroke="#4ca848" stroke-width="9.75"/><path d="M220 355.0 Q193.6 336.25 172.0 351.25" fill="none" stroke="#4ca848" stroke-width="9.75"/><path d="M220 351.25 Q246.4 331.0 268.0 346.0" fill="none" stroke="#4ca848" stroke-width="9.75"/><path d="M220 340.0 Q194.8375 321.25 174.25 336.25" fill="none" stroke="#4ca848" stroke-width="9.75"/><path d="M220 336.25 Q245.1625 316.0 265.75 331.0" fill="none" stroke="#4ca848" stroke-width="9.75"/><path d="M220 325.0 Q196.075 306.25 176.5 321.25" fill="none" stroke="#4ca848" stroke-width="9.75"/><path d="M220 321.25 Q243.925 301.0 263.5 316.0" fill="none" stroke="#4ca848" stroke-width="9.75"/><path d="M220 310.0 Q197.3125 291.25 178.75 306.25" fill="none" stroke="#4ca848" stroke-width="9.75"/><path d="M220 306.25 Q242.6875 286.0 261.25 301.0" fill="none" stroke="#4ca848" stroke-width="9.75"/><path d="M310 404.4 Q306.9 351.7 310 268.0" fill="none" stroke="#266b36" stroke-width="6.2"/><path d="M310 379.6 Q286.13 364.1 266.6 376.5" fill="none" stroke="#4ca848" stroke-width="8.06"/><path d="M310 376.5 Q333.87 359.76000000000005 353.4 372.16" fill="none" stroke="#4ca848" stroke-width="8.06"/><path d="M310 367.20000000000005 Q287.153 351.70000000000005 268.46 364.1" fill="none" stroke="#4ca848" stroke-width="8.06"/><path d="M310 364.1 Q332.847 347.36000000000007 351.54 359.76000000000005" fill="none" stroke="#4ca848" stroke-width="8.06"/><path d="M310 354.8 Q288.176 339.3 270.32 351.7" fill="none" stroke="#4ca848" stroke-width="8.06"/><path d="M310 351.7 Q331.824 334.96000000000004 349.68 347.36" fill="none" stroke="#4ca848" stroke-width="8.06"/><path d="M310 342.40000000000003 Q289.199 326.90000000000003 272.18 339.3" fill="none" stroke="#4ca848" stroke-width="8.06"/><path d="M310 339.3 Q330.801 322.56000000000006 347.82 334.96000000000004" fill="none" stroke="#4ca848" stroke-width="8.06"/><path d="M310 330.0 Q290.222 314.5 274.04 326.9" fill="none" stroke="#4ca848" stroke-width="8.06"/><path d="M310 326.9 Q329.778 310.16 345.96 322.56" fill="none" stroke="#4ca848" stroke-width="8.06"/><path d="M310 317.6 Q291.245 302.1 275.9 314.5" fill="none" stroke="#4ca848" stroke-width="8.06"/><path d="M310 314.5 Q328.755 297.76000000000005 344.1 310.16" fill="none" stroke="#4ca848" stroke-width="8.06"/>
</g>
</svg>
