<?xml version="1.0" encoding="UTF-8"?>
<svg xmlns="http://www.w3.org/2000/svg" viewBox="0 0 512 512" role="img" aria-labelledby="title desc">
<title id="title">蘑菇群</title>
<desc id="desc">星芽岛雨林素材：蘑菇群</desc>

<defs>
  <linearGradient id="water" x1="0" y1="0" x2="1" y2="1">
    <stop offset="0" stop-color="#65d6e8"/><stop offset=".55" stop-color="#208ec5"/><stop offset="1" stop-color="#14599e"/>
  </linearGradient>
  <linearGradient id="leaf" x1="0" y1="0" x2="1" y2="1">
    <stop offset="0" stop-color="#8ed84c"/><stop offset=".55" stop-color="#3b9f3d"/><stop offset="1" stop-color="#176b38"/>
  </linearGradient>
  <linearGradient id="leafDark" x1="0" y1="0" x2="1" y2="1">
    <stop offset="0" stop-color="#4eb44a"/><stop offset="1" stop-color="#0e5638"/>
  </linearGradient>
  <linearGradient id="wood" x1="0" y1="0" x2="1" y2="0">
    <stop offset="0" stop-color="#6c3e21"/><stop offset=".5" stop-color="#a96b35"/><stop offset="1" stop-color="#4c2b1a"/>
  </linearGradient>
  <linearGradient id="mud" x1="0" y1="0" x2="1" y2="1">
    <stop offset="0" stop-color="#9b7044"/><stop offset=".6" stop-color="#704728"/><stop offset="1" stop-color="#4b301f"/>
  </linearGradient>
  <linearGradient id="drop" x1="0" y1="0" x2="1" y2="1">
    <stop offset="0" stop-color="#f1ffff" stop-opacity=".98"/><stop offset=".45" stop-color="#75d8f2" stop-opacity=".9"/><stop offset="1" stop-color="#258dcc" stop-opacity=".9"/>
  </linearGradient>
  <filter id="shadow" x="-30%" y="-30%" width="160%" height="170%">
    <feDropShadow dx="0" dy="9" stdDeviation="8" flood-color="#12382d" flood-opacity=".30"/>
  </filter>
  <filter id="soft" x="-30%" y="-30%" width="160%" height="160%">
    <feGaussianBlur stdDeviation="5"/>
  </filter>
</defs>

<g filter="url(#shadow)" stroke-linecap="round" stroke-linejoin="round">
<ellipse cx="256" cy="430" rx="175" ry="24" fill="#2f6635" opacity=".35"/><path d="M160 417.5 V350" stroke="#e8dbc4" stroke-width="13.5"/><path d="M119.5 354.5 Q160 309.5 200.5 354.5 Q160 381.5 119.5 354.5Z" fill="#df5649" stroke="#6b4a3c" stroke-width="5.4"/><path d="M245 402.5 V320" stroke="#e8dbc4" stroke-width="16.5"/><path d="M195.5 325.5 Q245 270.5 294.5 325.5 Q245 358.5 195.5 325.5Z" fill="#f1c85b" stroke="#6b4a3c" stroke-width="6.6000000000000005"/><path d="M335 416.25 V360" stroke="#e8dbc4" stroke-width="11.25"/><path d="M301.25 363.75 Q335 326.25 368.75 363.75 Q335 386.25 301.25 363.75Z" fill="#d983ce" stroke="#6b4a3c" stroke-width="4.5"/><path d="M285 426.25 V385" stroke="#e8dbc4" stroke-width="8.25"/><path d="M260.25 387.75 Q285 360.25 309.75 387.75 Q285 404.25 260.25 387.75Z" fill="#f0eee0" stroke="#6b4a3c" stroke-width="3.3000000000000003"/>
</g>
</svg>
