<?xml version="1.0" encoding="UTF-8"?>
<svg xmlns="http://www.w3.org/2000/svg" viewBox="0 0 512 512" role="img" aria-labelledby="title desc">
<title id="title">守护古树</title>
<desc id="desc">星芽岛雨林素材：守护古树</desc>

<defs>
  <linearGradient id="water" x1="0" y1="0" x2="1" y2="1">
    <stop offset="0" stop-color="#65d6e8"/><stop offset=".55" stop-color="#208ec5"/><stop offset="1" stop-color="#14599e"/>
  </linearGradient>
  <linearGradient id="leaf" x1="0" y1="0" x2="1" y2="1">
    <stop offset="0" stop-color="#8ed84c"/><stop offset=".55" stop-color="#3b9f3d"/><stop offset="1" stop-color="#176b38"/>
  </linearGradient>
  <linearGradient id="leafDark" x1="0" y1="0" x2="1" y2="1">
    <stop offset="0" stop-color="#4eb44a"/><stop offset="1" stop-color="#0e5638"/>
  </linearGradient>
  <linearGradient id="wood" x1="0" y1="0" x2="1" y2="0">
    <stop offset="0" stop-color="#6c3e21"/><stop offset=".5" stop-color="#a96b35"/><stop offset="1" stop-color="#4c2b1a"/>
  </linearGradient>
  <linearGradient id="mud" x1="0" y1="0" x2="1" y2="1">
    <stop offset="0" stop-color="#9b7044"/><stop offset=".6" stop-color="#704728"/><stop offset="1" stop-color="#4b301f"/>
  </linearGradient>
  <linearGradient id="drop" x1="0" y1="0" x2="1" y2="1">
    <stop offset="0" stop-color="#f1ffff" stop-opacity=".98"/><stop offset=".45" stop-color="#75d8f2" stop-opacity=".9"/><stop offset="1" stop-color="#258dcc" stop-opacity=".9"/>
  </linearGradient>
  <filter id="shadow" x="-30%" y="-30%" width="160%" height="170%">
    <feDropShadow dx="0" dy="9" stdDeviation="8" flood-color="#12382d" flood-opacity=".30"/>
  </filter>
  <filter id="soft" x="-30%" y="-30%" width="160%" height="160%">
    <feGaussianBlur stdDeviation="5"/>
  </filter>
</defs>

<g filter="url(#shadow)" stroke-linecap="round" stroke-linejoin="round">
<ellipse cx="256" cy="448" rx="185" ry="30" fill="#315f31" opacity=".45"/><polygon points="192.0,440 213.76,115 298.24,115 320.0,440" fill="url(#wood)" stroke="#4c2b1a" stroke-width="9"/><path d="M232.96 420 Q249.6 175 256 123" fill="none" stroke="#d09352" stroke-width="7" opacity=".55"/><circle cx="167.8" cy="149.8" r="61.739999999999995" fill="#2e8f3e" stroke="#145b32" stroke-width="7"/><circle cx="211.9" cy="102.75999999999999" r="73.38239999999999" fill="#3ba84b" stroke="#145b32" stroke-width="7"/><circle cx="270.7" cy="83.16" r="87.9648" fill="#237a3b" stroke="#145b32" stroke-width="7"/><circle cx="329.5" cy="120.4" r="63.504000000000005" fill="#4bb552" stroke="#145b32" stroke-width="7"/><circle cx="352.03999999999996" cy="173.32" r="58.3296" fill="#2e8f3e" stroke="#145b32" stroke-width="7"/><circle cx="283.44" cy="167.44" r="94.96199999999999" fill="#3ba84b" stroke="#145b32" stroke-width="7"/><circle cx="211.9" cy="181.16" r="72.324" fill="#237a3b" stroke="#145b32" stroke-width="7"/><path d="M182 430 L82 466 L220 447 Z M330 430 L430 466 L292 447 Z" fill="#81502b" stroke="#4c2b1a" stroke-width="10"/><g transform="translate(175 170) scale(0.65)"><ellipse cx="0" cy="-22" rx="13" ry="24" transform="rotate(0.0)" fill="#f6a65d" stroke="#7d2e55" stroke-width="4"/><ellipse cx="0" cy="-22" rx="13" ry="24" transform="rotate(51.42857142857143)" fill="#f6a65d" stroke="#7d2e55" stroke-width="4"/><ellipse cx="0" cy="-22" rx="13" ry="24" transform="rotate(102.85714285714286)" fill="#f6a65d" stroke="#7d2e55" stroke-width="4"/><ellipse cx="0" cy="-22" rx="13" ry="24" transform="rotate(154.28571428571428)" fill="#f6a65d" stroke="#7d2e55" stroke-width="4"/><ellipse cx="0" cy="-22" rx="13" ry="24" transform="rotate(205.71428571428572)" fill="#f6a65d" stroke="#7d2e55" stroke-width="4"/><ellipse cx="0" cy="-22" rx="13" ry="24" transform="rotate(257.14285714285717)" fill="#f6a65d" stroke="#7d2e55" stroke-width="4"/><ellipse cx="0" cy="-22" rx="13" ry="24" transform="rotate(308.57142857142856)" fill="#f6a65d" stroke="#7d2e55" stroke-width="4"/><circle cx="0" cy="0" r="13" fill="#ffe47b" stroke="#8d5b1f" stroke-width="4"/></g><g transform="translate(340 120) scale(0.6)"><ellipse cx="0" cy="-22" rx="13" ry="24" transform="rotate(0.0)" fill="#f6a65d" stroke="#7d2e55" stroke-width="4"/><ellipse cx="0" cy="-22" rx="13" ry="24" transform="rotate(51.42857142857143)" fill="#f6a65d" stroke="#7d2e55" stroke-width="4"/><ellipse cx="0" cy="-22" rx="13" ry="24" transform="rotate(102.85714285714286)" fill="#f6a65d" stroke="#7d2e55" stroke-width="4"/><ellipse cx="0" cy="-22" rx="13" ry="24" transform="rotate(154.28571428571428)" fill="#f6a65d" stroke="#7d2e55" stroke-width="4"/><ellipse cx="0" cy="-22" rx="13" ry="24" transform="rotate(205.71428571428572)" fill="#f6a65d" stroke="#7d2e55" stroke-width="4"/><ellipse cx="0" cy="-22" rx="13" ry="24" transform="rotate(257.14285714285717)" fill="#f6a65d" stroke="#7d2e55" stroke-width="4"/><ellipse cx="0" cy="-22" rx="13" ry="24" transform="rotate(308.57142857142856)" fill="#f6a65d" stroke="#7d2e55" stroke-width="4"/><circle cx="0" cy="0" r="13" fill="#ffe47b" stroke="#8d5b1f" stroke-width="4"/></g>
</g>
</svg>
