<?xml version="1.0" encoding="UTF-8"?>
<svg xmlns="http://www.w3.org/2000/svg" viewBox="0 0 512 512" role="img" aria-labelledby="title desc">
<title id="title">开花植物</title>
<desc id="desc">星芽岛雨林素材：开花植物</desc>

<defs>
  <linearGradient id="water" x1="0" y1="0" x2="1" y2="1">
    <stop offset="0" stop-color="#65d6e8"/><stop offset=".55" stop-color="#208ec5"/><stop offset="1" stop-color="#14599e"/>
  </linearGradient>
  <linearGradient id="leaf" x1="0" y1="0" x2="1" y2="1">
    <stop offset="0" stop-color="#8ed84c"/><stop offset=".55" stop-color="#3b9f3d"/><stop offset="1" stop-color="#176b38"/>
  </linearGradient>
  <linearGradient id="leafDark" x1="0" y1="0" x2="1" y2="1">
    <stop offset="0" stop-color="#4eb44a"/><stop offset="1" stop-color="#0e5638"/>
  </linearGradient>
  <linearGradient id="wood" x1="0" y1="0" x2="1" y2="0">
    <stop offset="0" stop-color="#6c3e21"/><stop offset=".5" stop-color="#a96b35"/><stop offset="1" stop-color="#4c2b1a"/>
  </linearGradient>
  <linearGradient id="mud" x1="0" y1="0" x2="1" y2="1">
    <stop offset="0" stop-color="#9b7044"/><stop offset=".6" stop-color="#704728"/><stop offset="1" stop-color="#4b301f"/>
  </linearGradient>
  <linearGradient id="drop" x1="0" y1="0" x2="1" y2="1">
    <stop offset="0" stop-color="#f1ffff" stop-opacity=".98"/><stop offset=".45" stop-color="#75d8f2" stop-opacity=".9"/><stop offset="1" stop-color="#258dcc" stop-opacity=".9"/>
  </linearGradient>
  <filter id="shadow" x="-30%" y="-30%" width="160%" height="170%">
    <feDropShadow dx="0" dy="9" stdDeviation="8" flood-color="#12382d" flood-opacity=".30"/>
  </filter>
  <filter id="soft" x="-30%" y="-30%" width="160%" height="160%">
    <feGaussianBlur stdDeviation="5"/>
  </filter>
</defs>

<g filter="url(#shadow)" stroke-linecap="round" stroke-linejoin="round">
<ellipse cx="256" cy="430" rx="175" ry="24" fill="#2f6635" opacity=".35"/><g transform="translate(165 330) rotate(25)"><ellipse cx="0" cy="0" rx="55" ry="22" fill="url(#leaf)" stroke="#145b32" stroke-width="5"/><path d="M-50 0 H50" stroke="#d3ef87" stroke-width="3" opacity=".65"/></g><g transform="translate(255 330) rotate(-25)"><ellipse cx="0" cy="0" rx="55" ry="22" fill="url(#leaf)" stroke="#145b32" stroke-width="5"/><path d="M-50 0 H50" stroke="#d3ef87" stroke-width="3" opacity=".65"/></g><g transform="translate(345 330) rotate(25)"><ellipse cx="0" cy="0" rx="55" ry="22" fill="url(#leaf)" stroke="#145b32" stroke-width="5"/><path d="M-50 0 H50" stroke="#d3ef87" stroke-width="3" opacity=".65"/></g><g transform="translate(165 260) rotate(-25)"><ellipse cx="0" cy="0" rx="55" ry="22" fill="url(#leaf)" stroke="#145b32" stroke-width="5"/><path d="M-50 0 H50" stroke="#d3ef87" stroke-width="3" opacity=".65"/></g><g transform="translate(255 260) rotate(25)"><ellipse cx="0" cy="0" rx="55" ry="22" fill="url(#leaf)" stroke="#145b32" stroke-width="5"/><path d="M-50 0 H50" stroke="#d3ef87" stroke-width="3" opacity=".65"/></g><g transform="translate(345 260) rotate(-25)"><ellipse cx="0" cy="0" rx="55" ry="22" fill="url(#leaf)" stroke="#145b32" stroke-width="5"/><path d="M-50 0 H50" stroke="#d3ef87" stroke-width="3" opacity=".65"/></g><g transform="translate(200 245) scale(0.7)"><ellipse cx="0" cy="-22" rx="13" ry="24" transform="rotate(0.0)" fill="#ef6e9d" stroke="#7d2e55" stroke-width="4"/><ellipse cx="0" cy="-22" rx="13" ry="24" transform="rotate(51.42857142857143)" fill="#ef6e9d" stroke="#7d2e55" stroke-width="4"/><ellipse cx="0" cy="-22" rx="13" ry="24" transform="rotate(102.85714285714286)" fill="#ef6e9d" stroke="#7d2e55" stroke-width="4"/><ellipse cx="0" cy="-22" rx="13" ry="24" transform="rotate(154.28571428571428)" fill="#ef6e9d" stroke="#7d2e55" stroke-width="4"/><ellipse cx="0" cy="-22" rx="13" ry="24" transform="rotate(205.71428571428572)" fill="#ef6e9d" stroke="#7d2e55" stroke-width="4"/><ellipse cx="0" cy="-22" rx="13" ry="24" transform="rotate(257.14285714285717)" fill="#ef6e9d" stroke="#7d2e55" stroke-width="4"/><ellipse cx="0" cy="-22" rx="13" ry="24" transform="rotate(308.57142857142856)" fill="#ef6e9d" stroke="#7d2e55" stroke-width="4"/><circle cx="0" cy="0" r="13" fill="#ffe36b" stroke="#8d5b1f" stroke-width="4"/></g><g transform="translate(320 280) scale(0.65)"><ellipse cx="0" cy="-22" rx="13" ry="24" transform="rotate(0.0)" fill="#f39b4d" stroke="#7d2e55" stroke-width="4"/><ellipse cx="0" cy="-22" rx="13" ry="24" transform="rotate(60.0)" fill="#f39b4d" stroke="#7d2e55" stroke-width="4"/><ellipse cx="0" cy="-22" rx="13" ry="24" transform="rotate(120.0)" fill="#f39b4d" stroke="#7d2e55" stroke-width="4"/><ellipse cx="0" cy="-22" rx="13" ry="24" transform="rotate(180.0)" fill="#f39b4d" stroke="#7d2e55" stroke-width="4"/><ellipse cx="0" cy="-22" rx="13" ry="24" transform="rotate(240.0)" fill="#f39b4d" stroke="#7d2e55" stroke-width="4"/><ellipse cx="0" cy="-22" rx="13" ry="24" transform="rotate(300.0)" fill="#f39b4d" stroke="#7d2e55" stroke-width="4"/><circle cx="0" cy="0" r="13" fill="#ffe36b" stroke="#8d5b1f" stroke-width="4"/></g><g transform="translate(265 355) scale(0.55)"><ellipse cx="0" cy="-22" rx="13" ry="24" transform="rotate(0.0)" fill="#b678db" stroke="#7d2e55" stroke-width="4"/><ellipse cx="0" cy="-22" rx="13" ry="24" transform="rotate(51.42857142857143)" fill="#b678db" stroke="#7d2e55" stroke-width="4"/><ellipse cx="0" cy="-22" rx="13" ry="24" transform="rotate(102.85714285714286)" fill="#b678db" stroke="#7d2e55" stroke-width="4"/><ellipse cx="0" cy="-22" rx="13" ry="24" transform="rotate(154.28571428571428)" fill="#b678db" stroke="#7d2e55" stroke-width="4"/><ellipse cx="0" cy="-22" rx="13" ry="24" transform="rotate(205.71428571428572)" fill="#b678db" stroke="#7d2e55" stroke-width="4"/><ellipse cx="0" cy="-22" rx="13" ry="24" transform="rotate(257.14285714285717)" fill="#b678db" stroke="#7d2e55" stroke-width="4"/><ellipse cx="0" cy="-22" rx="13" ry="24" transform="rotate(308.57142857142856)" fill="#b678db" stroke="#7d2e55" stroke-width="4"/><circle cx="0" cy="0" r="13" fill="#ffe36b" stroke="#8d5b1f" stroke-width="4"/></g>
</g>
</svg>
