<?xml version="1.0" encoding="UTF-8"?>
<svg xmlns="http://www.w3.org/2000/svg" viewBox="0 0 512 512" role="img" aria-labelledby="title desc">
<title id="title">猴子</title>
<desc id="desc">星芽岛雨林素材：猴子</desc>

<defs>
  <linearGradient id="water" x1="0" y1="0" x2="1" y2="1">
    <stop offset="0" stop-color="#65d6e8"/><stop offset=".55" stop-color="#208ec5"/><stop offset="1" stop-color="#14599e"/>
  </linearGradient>
  <linearGradient id="leaf" x1="0" y1="0" x2="1" y2="1">
    <stop offset="0" stop-color="#8ed84c"/><stop offset=".55" stop-color="#3b9f3d"/><stop offset="1" stop-color="#176b38"/>
  </linearGradient>
  <linearGradient id="leafDark" x1="0" y1="0" x2="1" y2="1">
    <stop offset="0" stop-color="#4eb44a"/><stop offset="1" stop-color="#0e5638"/>
  </linearGradient>
  <linearGradient id="wood" x1="0" y1="0" x2="1" y2="0">
    <stop offset="0" stop-color="#6c3e21"/><stop offset=".5" stop-color="#a96b35"/><stop offset="1" stop-color="#4c2b1a"/>
  </linearGradient>
  <linearGradient id="mud" x1="0" y1="0" x2="1" y2="1">
    <stop offset="0" stop-color="#9b7044"/><stop offset=".6" stop-color="#704728"/><stop offset="1" stop-color="#4b301f"/>
  </linearGradient>
  <linearGradient id="drop" x1="0" y1="0" x2="1" y2="1">
    <stop offset="0" stop-color="#f1ffff" stop-opacity=".98"/><stop offset=".45" stop-color="#75d8f2" stop-opacity=".9"/><stop offset="1" stop-color="#258dcc" stop-opacity=".9"/>
  </linearGradient>
  <filter id="shadow" x="-30%" y="-30%" width="160%" height="170%">
    <feDropShadow dx="0" dy="9" stdDeviation="8" flood-color="#12382d" flood-opacity=".30"/>
  </filter>
  <filter id="soft" x="-30%" y="-30%" width="160%" height="160%">
    <feGaussianBlur stdDeviation="5"/>
  </filter>
</defs>

<g filter="url(#shadow)" stroke-linecap="round" stroke-linejoin="round">
<path d="M340 320 C445 300 445 430 355 425" fill="none" stroke="#7b4a2a" stroke-width="22"/><ellipse cx="255" cy="300" rx="83" ry="105" fill="#8b5530" stroke="#4d2b1b" stroke-width="9"/><circle cx="250" cy="190" r="72" fill="#8b5530" stroke="#4d2b1b" stroke-width="9"/><ellipse cx="250" cy="205" rx="48" ry="43" fill="#e1ad77"/><circle cx="180" cy="190" r="28" fill="#a66e42" stroke="#4d2b1b" stroke-width="7"/><circle cx="320" cy="190" r="28" fill="#a66e42" stroke="#4d2b1b" stroke-width="7"/><circle cx="232" cy="188" r="7"/><circle cx="270" cy="188" r="7"/><path d="M230 224 Q250 240 274 221" fill="none" stroke="#4d2b1b" stroke-width="6"/><path d="M200 330 L145 410 M310 330 L365 410" stroke="#7b4a2a" stroke-width="24"/>
</g>
</svg>
